<?xml version="1.0" encoding="UTF-8" standalone="no"?>
<!DOCTYPE svg PUBLIC "-//W3C//DTD SVG 1.1//EN"
 "http://www.w3.org/Graphics/SVG/1.1/DTD/svg11.dtd">
<!-- Generated by graphviz version 2.43.0 (0)
 -->
<!-- Title: %3 Pages: 1 -->
<svg width="811pt" height="274pt"
 viewBox="0.00 0.00 811.10 273.75" xmlns="http://www.w3.org/2000/svg" xmlns:xlink="http://www.w3.org/1999/xlink">
<g id="graph0" class="graph" transform="scale(1 1) rotate(0) translate(4 269.75)">
<title>%3</title>
<polygon fill="white" stroke="transparent" points="-4,4 -4,-269.75 807.1,-269.75 807.1,4 -4,4"/>
<!-- _ -->
<g id="node1" class="node">
<title>_</title>
<ellipse fill="black" stroke="black" cx="1.8" cy="-72.75" rx="1.8" ry="1.8"/>
</g>
<!-- 1 -->
<g id="node7" class="node">
<title>1</title>
<ellipse fill="none" stroke="black" cx="58.6" cy="-72.75" rx="18" ry="18"/>
<text text-anchor="middle" x="58.6" y="-69.05" font-family="Times,serif" font-size="14.00">1</text>
</g>
<!-- _&#45;&gt;1 -->
<g id="edge1" class="edge">
<title>_&#45;&gt;1</title>
<path fill="none" stroke="black" d="M3.75,-72.75C7.11,-72.75 18.87,-72.75 30.55,-72.75"/>
<polygon fill="black" stroke="black" points="30.58,-76.25 40.58,-72.75 30.58,-69.25 30.58,-76.25"/>
</g>
<!-- 4 -->
<g id="node2" class="node">
<title>4</title>
<ellipse fill="none" stroke="black" cx="251.6" cy="-120.75" rx="18" ry="18"/>
<ellipse fill="none" stroke="black" cx="251.6" cy="-120.75" rx="22" ry="22"/>
<text text-anchor="middle" x="251.6" y="-117.05" font-family="Times,serif" font-size="14.00">4</text>
</g>
<!-- 4&#45;&gt;4 -->
<g id="edge8" class="edge">
<title>4&#45;&gt;4</title>
<path fill="none" stroke="black" d="M242.55,-140.92C241.16,-151.35 244.18,-160.75 251.6,-160.75 256.47,-160.75 259.44,-156.7 260.52,-150.97"/>
<polygon fill="black" stroke="black" points="264.02,-150.96 260.65,-140.92 257.02,-150.87 264.02,-150.96"/>
<text text-anchor="middle" x="251.6" y="-164.55" font-family="Times,serif" font-size="14.00">0&#45;9</text>
</g>
<!-- 5 -->
<g id="node3" class="node">
<title>5</title>
<ellipse fill="none" stroke="black" cx="354.6" cy="-159.75" rx="18" ry="18"/>
<ellipse fill="none" stroke="black" cx="354.6" cy="-159.75" rx="22" ry="22"/>
<text text-anchor="middle" x="354.6" y="-156.05" font-family="Times,serif" font-size="14.00">5</text>
</g>
<!-- 4&#45;&gt;5 -->
<g id="edge9" class="edge">
<title>4&#45;&gt;5</title>
<path fill="none" stroke="black" d="M272.55,-128.45C287.22,-134.12 307.38,-141.9 323.93,-148.29"/>
<polygon fill="black" stroke="black" points="323.1,-151.72 333.69,-152.06 325.62,-145.19 323.1,-151.72"/>
<text text-anchor="middle" x="303.1" y="-146.55" font-family="Times,serif" font-size="14.00">.</text>
</g>
<!-- 6 -->
<g id="node10" class="node">
<title>6</title>
<ellipse fill="none" stroke="black" cx="588.1" cy="-132.75" rx="18" ry="18"/>
<text text-anchor="middle" x="588.1" y="-129.05" font-family="Times,serif" font-size="14.00">6</text>
</g>
<!-- 4&#45;&gt;6 -->
<g id="edge10" class="edge">
<title>4&#45;&gt;6</title>
<path fill="none" stroke="black" d="M273.78,-121.51C332.02,-123.6 494.56,-129.43 559.64,-131.76"/>
<polygon fill="black" stroke="black" points="559.8,-135.27 569.92,-132.13 560.05,-128.28 559.8,-135.27"/>
<text text-anchor="middle" x="421.35" y="-130.55" font-family="Times,serif" font-size="14.00">E e</text>
</g>
<!-- 9 -->
<g id="node5" class="node">
<title>9</title>
<ellipse fill="none" stroke="black" cx="488.1" cy="-210.75" rx="18" ry="18"/>
<ellipse fill="none" stroke="black" cx="488.1" cy="-210.75" rx="22" ry="22"/>
<text text-anchor="middle" x="488.1" y="-207.05" font-family="Times,serif" font-size="14.00">9</text>
</g>
<!-- 5&#45;&gt;9 -->
<g id="edge12" class="edge">
<title>5&#45;&gt;9</title>
<path fill="none" stroke="black" d="M375.29,-167.38C397.17,-175.87 432.74,-189.67 457.87,-199.41"/>
<polygon fill="black" stroke="black" points="456.69,-202.71 467.28,-203.06 459.22,-196.18 456.69,-202.71"/>
<text text-anchor="middle" x="421.35" y="-197.55" font-family="Times,serif" font-size="14.00">0&#45;9</text>
</g>
<!-- 5&#45;&gt;6 -->
<g id="edge11" class="edge">
<title>5&#45;&gt;6</title>
<path fill="none" stroke="black" d="M376.55,-157.3C418.68,-152.39 513.59,-141.32 560.22,-135.88"/>
<polygon fill="black" stroke="black" points="560.66,-139.36 570.18,-134.72 559.85,-132.4 560.66,-139.36"/>
<text text-anchor="middle" x="488.1" y="-149.55" font-family="Times,serif" font-size="14.00">E e</text>
</g>
<!-- 8 -->
<g id="node4" class="node">
<title>8</title>
<ellipse fill="none" stroke="black" cx="781.1" cy="-132.75" rx="18" ry="18"/>
<ellipse fill="none" stroke="black" cx="781.1" cy="-132.75" rx="22" ry="22"/>
<text text-anchor="middle" x="781.1" y="-129.05" font-family="Times,serif" font-size="14.00">8</text>
</g>
<!-- 8&#45;&gt;8 -->
<g id="edge16" class="edge">
<title>8&#45;&gt;8</title>
<path fill="none" stroke="black" d="M772.05,-152.92C770.66,-163.35 773.67,-172.75 781.1,-172.75 785.97,-172.75 788.94,-168.7 790.01,-162.97"/>
<polygon fill="black" stroke="black" points="793.51,-162.96 790.14,-152.92 786.52,-162.87 793.51,-162.96"/>
<text text-anchor="middle" x="781.1" y="-176.55" font-family="Times,serif" font-size="14.00">0&#45;9</text>
</g>
<!-- 9&#45;&gt;9 -->
<g id="edge18" class="edge">
<title>9&#45;&gt;9</title>
<path fill="none" stroke="black" d="M478.69,-230.92C477.24,-241.35 480.38,-250.75 488.1,-250.75 493.16,-250.75 496.25,-246.7 497.37,-240.97"/>
<polygon fill="black" stroke="black" points="500.87,-240.96 497.5,-230.92 493.87,-240.87 500.87,-240.96"/>
<text text-anchor="middle" x="488.1" y="-254.55" font-family="Times,serif" font-size="14.00">0&#45;9</text>
</g>
<!-- 9&#45;&gt;6 -->
<g id="edge17" class="edge">
<title>9&#45;&gt;6</title>
<path fill="none" stroke="black" d="M507.54,-200.33C520.54,-192.61 538.06,-181.45 552.1,-169.75 557.84,-164.95 563.62,-159.28 568.77,-153.84"/>
<polygon fill="black" stroke="black" points="571.63,-155.9 575.81,-146.16 566.47,-151.17 571.63,-155.9"/>
<text text-anchor="middle" x="540.1" y="-190.55" font-family="Times,serif" font-size="14.00">E e</text>
</g>
<!-- 10 -->
<g id="node6" class="node">
<title>10</title>
<ellipse fill="none" stroke="black" cx="421.35" cy="-26.75" rx="22.96" ry="22.96"/>
<ellipse fill="none" stroke="black" cx="421.35" cy="-26.75" rx="27" ry="27"/>
<text text-anchor="middle" x="421.35" y="-23.05" font-family="Times,serif" font-size="14.00">10</text>
</g>
<!-- 10&#45;&gt;10 -->
<g id="edge20" class="edge">
<title>10&#45;&gt;10</title>
<path fill="none" stroke="black" d="M409.22,-50.69C407.89,-61.79 411.94,-71.5 421.35,-71.5 427.67,-71.5 431.57,-67.12 433.05,-60.87"/>
<polygon fill="black" stroke="black" points="436.55,-60.83 433.48,-50.69 429.56,-60.53 436.55,-60.83"/>
<text text-anchor="middle" x="421.35" y="-75.3" font-family="Times,serif" font-size="14.00">0&#45;9</text>
</g>
<!-- 10&#45;&gt;6 -->
<g id="edge19" class="edge">
<title>10&#45;&gt;6</title>
<path fill="none" stroke="black" d="M446.69,-36.82C473.85,-48.69 518.41,-70.08 552.1,-95.75 558.05,-100.28 563.89,-105.87 569.05,-111.31"/>
<polygon fill="black" stroke="black" points="566.74,-113.97 576.04,-119.04 571.93,-109.27 566.74,-113.97"/>
<text text-anchor="middle" x="488.1" y="-71.55" font-family="Times,serif" font-size="14.00">E e</text>
</g>
<!-- 1&#45;&gt;4 -->
<g id="edge4" class="edge">
<title>1&#45;&gt;4</title>
<path fill="none" stroke="black" d="M74.16,-81.83C80.29,-85.34 87.61,-89.13 94.6,-91.75 136.2,-107.34 187.3,-114.79 219.41,-118.18"/>
<polygon fill="black" stroke="black" points="219.24,-121.68 229.54,-119.18 219.93,-114.71 219.24,-121.68"/>
<text text-anchor="middle" x="152.6" y="-114.55" font-family="Times,serif" font-size="14.00">0&#45;9</text>
</g>
<!-- 2 -->
<g id="node8" class="node">
<title>2</title>
<ellipse fill="none" stroke="black" cx="152.6" cy="-72.75" rx="18" ry="18"/>
<text text-anchor="middle" x="152.6" y="-69.05" font-family="Times,serif" font-size="14.00">2</text>
</g>
<!-- 1&#45;&gt;2 -->
<g id="edge2" class="edge">
<title>1&#45;&gt;2</title>
<path fill="none" stroke="black" d="M76.9,-72.75C90.14,-72.75 108.65,-72.75 123.94,-72.75"/>
<polygon fill="black" stroke="black" points="124.37,-76.25 134.37,-72.75 124.37,-69.25 124.37,-76.25"/>
<text text-anchor="middle" x="105.6" y="-76.55" font-family="Times,serif" font-size="14.00">+ &#45;</text>
</g>
<!-- 3 -->
<g id="node9" class="node">
<title>3</title>
<ellipse fill="none" stroke="black" cx="251.6" cy="-26.75" rx="18" ry="18"/>
<text text-anchor="middle" x="251.6" y="-23.05" font-family="Times,serif" font-size="14.00">3</text>
</g>
<!-- 1&#45;&gt;3 -->
<g id="edge3" class="edge">
<title>1&#45;&gt;3</title>
<path fill="none" stroke="black" d="M73.36,-62.36C87.76,-52.16 111.46,-37.21 134.6,-30.75 164.05,-22.52 199.35,-22.64 223.21,-24.1"/>
<polygon fill="black" stroke="black" points="223.08,-27.6 233.31,-24.85 223.59,-20.62 223.08,-27.6"/>
<text text-anchor="middle" x="152.6" y="-34.55" font-family="Times,serif" font-size="14.00">.</text>
</g>
<!-- 2&#45;&gt;4 -->
<g id="edge6" class="edge">
<title>2&#45;&gt;4</title>
<path fill="none" stroke="black" d="M169.6,-79.01C181.39,-83.78 197.72,-90.7 211.6,-97.75 215.65,-99.81 219.86,-102.11 223.95,-104.44"/>
<polygon fill="black" stroke="black" points="222.21,-107.47 232.61,-109.5 225.75,-101.43 222.21,-107.47"/>
<text text-anchor="middle" x="200.1" y="-101.55" font-family="Times,serif" font-size="14.00">0&#45;9</text>
</g>
<!-- 2&#45;&gt;3 -->
<g id="edge5" class="edge">
<title>2&#45;&gt;3</title>
<path fill="none" stroke="black" d="M169.18,-65.36C184.46,-58.11 207.98,-46.96 225.82,-38.5"/>
<polygon fill="black" stroke="black" points="227.52,-41.57 235.05,-34.12 224.52,-35.24 227.52,-41.57"/>
<text text-anchor="middle" x="200.1" y="-59.55" font-family="Times,serif" font-size="14.00">.</text>
</g>
<!-- 3&#45;&gt;10 -->
<g id="edge7" class="edge">
<title>3&#45;&gt;10</title>
<path fill="none" stroke="black" d="M269.61,-26.75C296.33,-26.75 348.75,-26.75 384.17,-26.75"/>
<polygon fill="black" stroke="black" points="384.57,-30.25 394.57,-26.75 384.57,-23.25 384.57,-30.25"/>
<text text-anchor="middle" x="303.1" y="-30.55" font-family="Times,serif" font-size="14.00">0&#45;9</text>
</g>
<!-- 6&#45;&gt;8 -->
<g id="edge14" class="edge">
<title>6&#45;&gt;8</title>
<path fill="none" stroke="black" d="M605.7,-137.35C611.47,-138.73 618.03,-140.06 624.1,-140.75 643.9,-142.98 654.04,-147.96 741.1,-139.75 743.67,-139.5 746.33,-139.18 749,-138.81"/>
<polygon fill="black" stroke="black" points="749.82,-142.22 759.13,-137.17 748.7,-135.31 749.82,-142.22"/>
<text text-anchor="middle" x="682.1" y="-147.55" font-family="Times,serif" font-size="14.00">0&#45;9</text>
</g>
<!-- 7 -->
<g id="node11" class="node">
<title>7</title>
<ellipse fill="none" stroke="black" cx="682.1" cy="-105.75" rx="18" ry="18"/>
<text text-anchor="middle" x="682.1" y="-102.05" font-family="Times,serif" font-size="14.00">7</text>
</g>
<!-- 6&#45;&gt;7 -->
<g id="edge13" class="edge">
<title>6&#45;&gt;7</title>
<path fill="none" stroke="black" d="M605.54,-127.92C619.2,-123.91 638.87,-118.14 654.72,-113.49"/>
<polygon fill="black" stroke="black" points="655.87,-116.8 664.48,-110.62 653.9,-110.08 655.87,-116.8"/>
<text text-anchor="middle" x="635.1" y="-125.55" font-family="Times,serif" font-size="14.00">+ &#45;</text>
</g>
<!-- 7&#45;&gt;8 -->
<g id="edge15" class="edge">
<title>7&#45;&gt;8</title>
<path fill="none" stroke="black" d="M699.55,-110.33C713.25,-114.14 733.12,-119.67 749.69,-124.29"/>
<polygon fill="black" stroke="black" points="748.93,-127.71 759.5,-127.02 750.81,-120.96 748.93,-127.71"/>
<text text-anchor="middle" x="729.6" y="-124.55" font-family="Times,serif" font-size="14.00">0&#45;9</text>
</g>
</g>
</svg>
