<?xml version="1.0" encoding="UTF-8" standalone="no"?>
<!DOCTYPE svg PUBLIC "-//W3C//DTD SVG 1.1//EN"
 "http://www.w3.org/Graphics/SVG/1.1/DTD/svg11.dtd">
<!-- Generated by graphviz version 2.43.0 (0)
 -->
<!-- Title: %45 Pages: 1 -->
<svg width="2719pt" height="455pt"
 viewBox="0.00 0.00 2719.38 455.50" xmlns="http://www.w3.org/2000/svg" xmlns:xlink="http://www.w3.org/1999/xlink">
<g id="page0,1_graph0" class="graph" transform="scale(1 1) rotate(0) translate(4 451.5)">
<title>%45</title>
<polygon fill="white" stroke="transparent" points="-4,4 -4,-451.5 2715.38,-451.5 2715.38,4 -4,4"/>
<!-- _ -->
<g id="node1" class="node">
<title>_</title>
<ellipse fill="black" stroke="black" cx="22.75" cy="-122.75" rx="1.8" ry="1.8"/>
</g>
<!-- 2 -->
<g id="node3" class="node">
<title>2</title>
<ellipse fill="none" stroke="black" cx="126.24" cy="-122.75" rx="18" ry="18"/>
<text text-anchor="middle" x="126.24" y="-119.05" font-family="Times,serif" font-size="14.00">2</text>
</g>
<!-- _&#45;&gt;2 -->
<g id="edge1" class="edge">
<title>_&#45;&gt;2</title>
<path fill="none" stroke="black" d="M24.89,-122.75C32,-122.75 70.88,-122.75 98.11,-122.75"/>
<polygon fill="black" stroke="black" points="98.23,-126.25 108.23,-122.75 98.23,-119.25 98.23,-126.25"/>
</g>
<!-- 45 -->
<g id="node2" class="node">
<title>45</title>
<ellipse fill="none" stroke="black" cx="2684.63" cy="-67.75" rx="22.96" ry="22.96"/>
<ellipse fill="none" stroke="black" cx="2684.63" cy="-67.75" rx="27" ry="27"/>
<text text-anchor="middle" x="2684.63" y="-64.05" font-family="Times,serif" font-size="14.00">45</text>
</g>
<!-- 3 -->
<g id="node6" class="node">
<title>3</title>
<ellipse fill="none" stroke="black" cx="211.99" cy="-95.75" rx="18" ry="18"/>
<text text-anchor="middle" x="211.99" y="-92.05" font-family="Times,serif" font-size="14.00">3</text>
</g>
<!-- 2&#45;&gt;3 -->
<g id="edge4" class="edge">
<title>2&#45;&gt;3</title>
<path fill="none" stroke="black" d="M143.79,-117.41C155.57,-113.62 171.62,-108.44 185.09,-104.1"/>
<polygon fill="black" stroke="black" points="186.32,-107.38 194.77,-100.98 184.17,-100.72 186.32,-107.38"/>
<text text-anchor="middle" x="171.49" y="-113.55" font-family="Times,serif" font-size="14.00">e</text>
</g>
<!-- 0 -->
<g id="node4" class="node">
<title>0</title>
<ellipse fill="none" stroke="black" cx="22.75" cy="-68.75" rx="18" ry="18"/>
<text text-anchor="middle" x="22.75" y="-65.05" font-family="Times,serif" font-size="14.00">0</text>
</g>
<!-- 1 -->
<g id="node5" class="node">
<title>1</title>
<ellipse fill="none" stroke="black" cx="126.24" cy="-68.75" rx="18" ry="18"/>
<text text-anchor="middle" x="126.24" y="-65.05" font-family="Times,serif" font-size="14.00">1</text>
</g>
<!-- 0&#45;&gt;1 -->
<g id="edge2" class="edge">
<title>0&#45;&gt;1</title>
<path fill="none" stroke="black" d="M40.97,-68.75C56.49,-68.75 79.61,-68.75 97.7,-68.75"/>
<polygon fill="black" stroke="black" points="97.94,-72.25 107.94,-68.75 97.94,-65.25 97.94,-72.25"/>
<text text-anchor="middle" x="74.5" y="-72.55" font-family="Times,serif" font-size="14.00">+ &#45;</text>
</g>
<!-- 1&#45;&gt;3 -->
<g id="edge3" class="edge">
<title>1&#45;&gt;3</title>
<path fill="none" stroke="black" d="M144.09,-72.71C153.55,-75.07 165.52,-78.27 175.99,-81.75 179.16,-82.8 182.45,-83.99 185.7,-85.22"/>
<polygon fill="black" stroke="black" points="184.52,-88.52 195.11,-88.93 187.09,-82 184.52,-88.52"/>
<text text-anchor="middle" x="171.49" y="-85.55" font-family="Times,serif" font-size="14.00">e</text>
</g>
<!-- 28 -->
<g id="node7" class="node">
<title>28</title>
<ellipse fill="none" stroke="black" cx="297.74" cy="-95.75" rx="23" ry="23"/>
<text text-anchor="middle" x="297.74" y="-92.05" font-family="Times,serif" font-size="14.00">28</text>
</g>
<!-- 3&#45;&gt;28 -->
<g id="edge5" class="edge">
<title>3&#45;&gt;28</title>
<path fill="none" stroke="black" d="M230.34,-95.75C240.25,-95.75 252.98,-95.75 264.64,-95.75"/>
<polygon fill="black" stroke="black" points="264.93,-99.25 274.93,-95.75 264.93,-92.25 264.93,-99.25"/>
<text text-anchor="middle" x="252.49" y="-99.55" font-family="Times,serif" font-size="14.00">e</text>
</g>
<!-- 8 -->
<g id="node13" class="node">
<title>8</title>
<ellipse fill="none" stroke="black" cx="388.24" cy="-125.75" rx="18" ry="18"/>
<text text-anchor="middle" x="388.24" y="-122.05" font-family="Times,serif" font-size="14.00">8</text>
</g>
<!-- 28&#45;&gt;8 -->
<g id="edge32" class="edge">
<title>28&#45;&gt;8</title>
<path fill="none" stroke="black" d="M319.71,-102.86C332.18,-107.08 348.08,-112.48 361.33,-116.97"/>
<polygon fill="black" stroke="black" points="360.24,-120.29 370.84,-120.19 362.49,-113.66 360.24,-120.29"/>
<text text-anchor="middle" x="342.99" y="-115.55" font-family="Times,serif" font-size="14.00">e</text>
</g>
<!-- 20 -->
<g id="node25" class="node">
<title>20</title>
<ellipse fill="none" stroke="black" cx="388.24" cy="-66.75" rx="23" ry="23"/>
<text text-anchor="middle" x="388.24" y="-63.05" font-family="Times,serif" font-size="14.00">20</text>
</g>
<!-- 28&#45;&gt;20 -->
<g id="edge33" class="edge">
<title>28&#45;&gt;20</title>
<path fill="none" stroke="black" d="M319.71,-88.88C330.73,-85.26 344.45,-80.77 356.63,-76.78"/>
<polygon fill="black" stroke="black" points="358,-80.01 366.41,-73.57 355.82,-73.36 358,-80.01"/>
<text text-anchor="middle" x="342.99" y="-86.55" font-family="Times,serif" font-size="14.00">e</text>
</g>
<!-- 4 -->
<g id="node8" class="node">
<title>4</title>
<ellipse fill="none" stroke="black" cx="478.73" cy="-125.75" rx="18" ry="18"/>
<text text-anchor="middle" x="478.73" y="-122.05" font-family="Times,serif" font-size="14.00">4</text>
</g>
<!-- 5 -->
<g id="node9" class="node">
<title>5</title>
<ellipse fill="none" stroke="black" cx="583.23" cy="-137.75" rx="18" ry="18"/>
<text text-anchor="middle" x="583.23" y="-134.05" font-family="Times,serif" font-size="14.00">5</text>
</g>
<!-- 4&#45;&gt;5 -->
<g id="edge6" class="edge">
<title>4&#45;&gt;5</title>
<path fill="none" stroke="black" d="M496.75,-127.94C503.78,-128.83 512.02,-129.86 519.48,-130.75 531.19,-132.14 544.15,-133.6 555.23,-134.82"/>
<polygon fill="black" stroke="black" points="554.85,-138.3 565.18,-135.91 555.62,-131.34 554.85,-138.3"/>
<text text-anchor="middle" x="530.98" y="-137.55" font-family="Times,serif" font-size="14.00">0&#45;9</text>
</g>
<!-- 5&#45;&gt;4 -->
<g id="edge7" class="edge">
<title>5&#45;&gt;4</title>
<path fill="none" stroke="black" d="M568.88,-126.2C561.6,-120.66 552.12,-114.62 542.48,-111.75 530.15,-108.07 516.21,-110.55 504.6,-114.37"/>
<polygon fill="black" stroke="black" points="503.22,-111.15 495.1,-117.97 505.69,-117.7 503.22,-111.15"/>
<text text-anchor="middle" x="530.98" y="-115.55" font-family="Times,serif" font-size="14.00">e</text>
</g>
<!-- 9 -->
<g id="node10" class="node">
<title>9</title>
<ellipse fill="none" stroke="black" cx="673.72" cy="-137.75" rx="18" ry="18"/>
<text text-anchor="middle" x="673.72" y="-134.05" font-family="Times,serif" font-size="14.00">9</text>
</g>
<!-- 5&#45;&gt;9 -->
<g id="edge8" class="edge">
<title>5&#45;&gt;9</title>
<path fill="none" stroke="black" d="M601.29,-137.75C613.78,-137.75 630.98,-137.75 645.38,-137.75"/>
<polygon fill="black" stroke="black" points="645.71,-141.25 655.71,-137.75 645.71,-134.25 645.71,-141.25"/>
<text text-anchor="middle" x="628.48" y="-141.55" font-family="Times,serif" font-size="14.00">e</text>
</g>
<!-- 18 -->
<g id="node14" class="node">
<title>18</title>
<ellipse fill="none" stroke="black" cx="778.22" cy="-137.75" rx="23" ry="23"/>
<text text-anchor="middle" x="778.22" y="-134.05" font-family="Times,serif" font-size="14.00">18</text>
</g>
<!-- 9&#45;&gt;18 -->
<g id="edge11" class="edge">
<title>9&#45;&gt;18</title>
<path fill="none" stroke="black" d="M692.11,-137.75C706.58,-137.75 727.58,-137.75 745.09,-137.75"/>
<polygon fill="black" stroke="black" points="745.46,-141.25 755.46,-137.75 745.46,-134.25 745.46,-141.25"/>
<text text-anchor="middle" x="725.97" y="-141.55" font-family="Times,serif" font-size="14.00">e</text>
</g>
<!-- 6 -->
<g id="node11" class="node">
<title>6</title>
<ellipse fill="none" stroke="black" cx="22.75" cy="-176.75" rx="18" ry="18"/>
<text text-anchor="middle" x="22.75" y="-173.05" font-family="Times,serif" font-size="14.00">6</text>
</g>
<!-- 7 -->
<g id="node12" class="node">
<title>7</title>
<ellipse fill="none" stroke="black" cx="126.24" cy="-176.75" rx="18" ry="18"/>
<text text-anchor="middle" x="126.24" y="-173.05" font-family="Times,serif" font-size="14.00">7</text>
</g>
<!-- 6&#45;&gt;7 -->
<g id="edge9" class="edge">
<title>6&#45;&gt;7</title>
<path fill="none" stroke="black" d="M40.97,-176.75C56.49,-176.75 79.61,-176.75 97.7,-176.75"/>
<polygon fill="black" stroke="black" points="97.94,-180.25 107.94,-176.75 97.94,-173.25 97.94,-180.25"/>
<text text-anchor="middle" x="74.5" y="-180.55" font-family="Times,serif" font-size="14.00">9</text>
</g>
<!-- 8&#45;&gt;4 -->
<g id="edge10" class="edge">
<title>8&#45;&gt;4</title>
<path fill="none" stroke="black" d="M406.3,-125.75C418.79,-125.75 435.99,-125.75 450.39,-125.75"/>
<polygon fill="black" stroke="black" points="450.72,-129.25 460.72,-125.75 450.72,-122.25 450.72,-129.25"/>
<text text-anchor="middle" x="433.48" y="-129.55" font-family="Times,serif" font-size="14.00">e</text>
</g>
<!-- 10 -->
<g id="node15" class="node">
<title>10</title>
<ellipse fill="none" stroke="black" cx="868.72" cy="-159.75" rx="23" ry="23"/>
<text text-anchor="middle" x="868.72" y="-156.05" font-family="Times,serif" font-size="14.00">10</text>
</g>
<!-- 18&#45;&gt;10 -->
<g id="edge21" class="edge">
<title>18&#45;&gt;10</title>
<path fill="none" stroke="black" d="M800.64,-143.07C811.4,-145.75 824.65,-149.04 836.51,-151.99"/>
<polygon fill="black" stroke="black" points="835.94,-155.46 846.49,-154.47 837.63,-148.66 835.94,-155.46"/>
<text text-anchor="middle" x="823.47" y="-153.55" font-family="Times,serif" font-size="14.00">e</text>
</g>
<!-- 19 -->
<g id="node23" class="node">
<title>19</title>
<ellipse fill="none" stroke="black" cx="1462.19" cy="-111.75" rx="23" ry="23"/>
<text text-anchor="middle" x="1462.19" y="-108.05" font-family="Times,serif" font-size="14.00">19</text>
</g>
<!-- 18&#45;&gt;19 -->
<g id="edge22" class="edge">
<title>18&#45;&gt;19</title>
<path fill="none" stroke="black" d="M798.66,-127.44C816.2,-119.11 842.98,-108.75 867.72,-108.75 867.72,-108.75 867.72,-108.75 1372.69,-108.75 1391.35,-108.75 1412.22,-109.42 1429,-110.13"/>
<polygon fill="black" stroke="black" points="1429.23,-113.65 1439.37,-110.6 1429.54,-106.65 1429.23,-113.65"/>
<text text-anchor="middle" x="1131.45" y="-112.55" font-family="Times,serif" font-size="14.00">e</text>
</g>
<!-- 11 -->
<g id="node16" class="node">
<title>11</title>
<ellipse fill="none" stroke="black" cx="995.71" cy="-159.75" rx="23" ry="23"/>
<text text-anchor="middle" x="995.71" y="-156.05" font-family="Times,serif" font-size="14.00">11</text>
</g>
<!-- 10&#45;&gt;11 -->
<g id="edge12" class="edge">
<title>10&#45;&gt;11</title>
<path fill="none" stroke="black" d="M891.49,-159.75C911.17,-159.75 940.4,-159.75 962.74,-159.75"/>
<polygon fill="black" stroke="black" points="962.77,-163.25 972.77,-159.75 962.77,-156.25 962.77,-163.25"/>
<text text-anchor="middle" x="932.21" y="-163.55" font-family="Times,serif" font-size="14.00">.</text>
</g>
<!-- 16 -->
<g id="node17" class="node">
<title>16</title>
<ellipse fill="none" stroke="black" cx="1086.2" cy="-159.75" rx="23" ry="23"/>
<text text-anchor="middle" x="1086.2" y="-156.05" font-family="Times,serif" font-size="14.00">16</text>
</g>
<!-- 11&#45;&gt;16 -->
<g id="edge13" class="edge">
<title>11&#45;&gt;16</title>
<path fill="none" stroke="black" d="M1018.58,-159.75C1029.01,-159.75 1041.68,-159.75 1053.16,-159.75"/>
<polygon fill="black" stroke="black" points="1053.27,-163.25 1063.27,-159.75 1053.27,-156.25 1053.27,-163.25"/>
<text text-anchor="middle" x="1040.96" y="-163.55" font-family="Times,serif" font-size="14.00">e</text>
</g>
<!-- 12 -->
<g id="node18" class="node">
<title>12</title>
<ellipse fill="none" stroke="black" cx="1176.7" cy="-203.75" rx="23" ry="23"/>
<text text-anchor="middle" x="1176.7" y="-200.05" font-family="Times,serif" font-size="14.00">12</text>
</g>
<!-- 16&#45;&gt;12 -->
<g id="edge18" class="edge">
<title>16&#45;&gt;12</title>
<path fill="none" stroke="black" d="M1106.84,-169.51C1118.64,-175.38 1133.87,-182.95 1147,-189.48"/>
<polygon fill="black" stroke="black" points="1145.6,-192.69 1156.11,-194.01 1148.72,-186.42 1145.6,-192.69"/>
<text text-anchor="middle" x="1131.45" y="-187.55" font-family="Times,serif" font-size="14.00">e</text>
</g>
<!-- 17 -->
<g id="node20" class="node">
<title>17</title>
<ellipse fill="none" stroke="black" cx="1371.69" cy="-159.75" rx="23" ry="23"/>
<text text-anchor="middle" x="1371.69" y="-156.05" font-family="Times,serif" font-size="14.00">17</text>
</g>
<!-- 16&#45;&gt;17 -->
<g id="edge19" class="edge">
<title>16&#45;&gt;17</title>
<path fill="none" stroke="black" d="M1108.98,-159.75C1158.65,-159.75 1280.55,-159.75 1338.75,-159.75"/>
<polygon fill="black" stroke="black" points="1338.84,-163.25 1348.84,-159.75 1338.84,-156.25 1338.84,-163.25"/>
<text text-anchor="middle" x="1228.95" y="-163.55" font-family="Times,serif" font-size="14.00">e</text>
</g>
<!-- 13 -->
<g id="node19" class="node">
<title>13</title>
<ellipse fill="none" stroke="black" cx="1281.2" cy="-203.75" rx="23" ry="23"/>
<text text-anchor="middle" x="1281.2" y="-200.05" font-family="Times,serif" font-size="14.00">13</text>
</g>
<!-- 12&#45;&gt;13 -->
<g id="edge14" class="edge">
<title>12&#45;&gt;13</title>
<path fill="none" stroke="black" d="M1199,-209.49C1204.93,-210.83 1211.4,-212.07 1217.45,-212.75 1227.61,-213.88 1230.29,-213.88 1240.45,-212.75 1243.19,-212.44 1246.01,-212.02 1248.84,-211.53"/>
<polygon fill="black" stroke="black" points="1249.78,-214.9 1258.89,-209.49 1248.39,-208.04 1249.78,-214.9"/>
<text text-anchor="middle" x="1228.95" y="-217.55" font-family="Times,serif" font-size="14.00">0&#45;9</text>
</g>
<!-- 13&#45;&gt;12 -->
<g id="edge15" class="edge">
<title>13&#45;&gt;12</title>
<path fill="none" stroke="black" d="M1258.93,-197.37C1253,-195.88 1246.52,-194.5 1240.45,-193.75 1230.3,-192.49 1227.59,-192.49 1217.45,-193.75 1214.6,-194.1 1211.66,-194.59 1208.74,-195.16"/>
<polygon fill="black" stroke="black" points="1207.95,-191.75 1198.97,-197.37 1209.5,-198.58 1207.95,-191.75"/>
<text text-anchor="middle" x="1228.95" y="-197.55" font-family="Times,serif" font-size="14.00">e</text>
</g>
<!-- 13&#45;&gt;17 -->
<g id="edge16" class="edge">
<title>13&#45;&gt;17</title>
<path fill="none" stroke="black" d="M1301.84,-193.98C1313.64,-188.12 1328.86,-180.55 1341.99,-174.02"/>
<polygon fill="black" stroke="black" points="1343.71,-177.07 1351.11,-169.49 1340.59,-170.8 1343.71,-177.07"/>
<text text-anchor="middle" x="1326.44" y="-187.55" font-family="Times,serif" font-size="14.00">e</text>
</g>
<!-- 17&#45;&gt;19 -->
<g id="edge20" class="edge">
<title>17&#45;&gt;19</title>
<path fill="none" stroke="black" d="M1392.33,-149.1C1404.21,-142.65 1419.57,-134.32 1432.76,-127.17"/>
<polygon fill="black" stroke="black" points="1434.79,-130.05 1441.91,-122.21 1431.45,-123.9 1434.79,-130.05"/>
<text text-anchor="middle" x="1416.94" y="-141.55" font-family="Times,serif" font-size="14.00">e</text>
</g>
<!-- 14 -->
<g id="node21" class="node">
<title>14</title>
<ellipse fill="none" stroke="black" cx="22.75" cy="-235.75" rx="23" ry="23"/>
<text text-anchor="middle" x="22.75" y="-232.05" font-family="Times,serif" font-size="14.00">14</text>
</g>
<!-- 15 -->
<g id="node22" class="node">
<title>15</title>
<ellipse fill="none" stroke="black" cx="126.24" cy="-235.75" rx="23" ry="23"/>
<text text-anchor="middle" x="126.24" y="-232.05" font-family="Times,serif" font-size="14.00">15</text>
</g>
<!-- 14&#45;&gt;15 -->
<g id="edge17" class="edge">
<title>14&#45;&gt;15</title>
<path fill="none" stroke="black" d="M45.52,-235.75C59.34,-235.75 77.47,-235.75 92.95,-235.75"/>
<polygon fill="black" stroke="black" points="93.16,-239.25 103.16,-235.75 93.16,-232.25 93.16,-239.25"/>
<text text-anchor="middle" x="74.5" y="-239.55" font-family="Times,serif" font-size="14.00">9</text>
</g>
<!-- 29 -->
<g id="node24" class="node">
<title>29</title>
<ellipse fill="none" stroke="black" cx="1552.68" cy="-76.75" rx="23" ry="23"/>
<text text-anchor="middle" x="1552.68" y="-73.05" font-family="Times,serif" font-size="14.00">29</text>
</g>
<!-- 19&#45;&gt;29 -->
<g id="edge23" class="edge">
<title>19&#45;&gt;29</title>
<path fill="none" stroke="black" d="M1483.71,-103.63C1494.99,-99.17 1509.2,-93.55 1521.7,-88.61"/>
<polygon fill="black" stroke="black" points="1523.26,-91.75 1531.27,-84.82 1520.68,-85.24 1523.26,-91.75"/>
<text text-anchor="middle" x="1507.44" y="-99.55" font-family="Times,serif" font-size="14.00">e</text>
</g>
<!-- 44 -->
<g id="node33" class="node">
<title>44</title>
<ellipse fill="none" stroke="black" cx="1643.18" cy="-76.75" rx="23" ry="23"/>
<text text-anchor="middle" x="1643.18" y="-73.05" font-family="Times,serif" font-size="14.00">44</text>
</g>
<!-- 29&#45;&gt;44 -->
<g id="edge34" class="edge">
<title>29&#45;&gt;44</title>
<path fill="none" stroke="black" d="M1575.56,-76.75C1585.98,-76.75 1598.65,-76.75 1610.14,-76.75"/>
<polygon fill="black" stroke="black" points="1610.25,-80.25 1620.25,-76.75 1610.25,-73.25 1610.25,-80.25"/>
<text text-anchor="middle" x="1597.93" y="-80.55" font-family="Times,serif" font-size="14.00">e</text>
</g>
<!-- 21 -->
<g id="node26" class="node">
<title>21</title>
<ellipse fill="none" stroke="black" cx="478.73" cy="-66.75" rx="23" ry="23"/>
<text text-anchor="middle" x="478.73" y="-63.05" font-family="Times,serif" font-size="14.00">21</text>
</g>
<!-- 20&#45;&gt;21 -->
<g id="edge24" class="edge">
<title>20&#45;&gt;21</title>
<path fill="none" stroke="black" d="M411.11,-66.75C421.54,-66.75 434.21,-66.75 445.69,-66.75"/>
<polygon fill="black" stroke="black" points="445.8,-70.25 455.8,-66.75 445.8,-63.25 445.8,-70.25"/>
<text text-anchor="middle" x="433.48" y="-70.55" font-family="Times,serif" font-size="14.00">.</text>
</g>
<!-- 26 -->
<g id="node27" class="node">
<title>26</title>
<ellipse fill="none" stroke="black" cx="583.23" cy="-66.75" rx="23" ry="23"/>
<text text-anchor="middle" x="583.23" y="-63.05" font-family="Times,serif" font-size="14.00">26</text>
</g>
<!-- 21&#45;&gt;26 -->
<g id="edge25" class="edge">
<title>21&#45;&gt;26</title>
<path fill="none" stroke="black" d="M501.72,-66.75C515.77,-66.75 534.24,-66.75 549.94,-66.75"/>
<polygon fill="black" stroke="black" points="550.28,-70.25 560.28,-66.75 550.28,-63.25 550.28,-70.25"/>
<text text-anchor="middle" x="530.98" y="-70.55" font-family="Times,serif" font-size="14.00">e</text>
</g>
<!-- 22 -->
<g id="node28" class="node">
<title>22</title>
<ellipse fill="none" stroke="black" cx="673.72" cy="-66.75" rx="23" ry="23"/>
<text text-anchor="middle" x="673.72" y="-63.05" font-family="Times,serif" font-size="14.00">22</text>
</g>
<!-- 26&#45;&gt;22 -->
<g id="edge30" class="edge">
<title>26&#45;&gt;22</title>
<path fill="none" stroke="black" d="M606.1,-66.75C616.53,-66.75 629.2,-66.75 640.68,-66.75"/>
<polygon fill="black" stroke="black" points="640.79,-70.25 650.79,-66.75 640.79,-63.25 640.79,-70.25"/>
<text text-anchor="middle" x="628.48" y="-70.55" font-family="Times,serif" font-size="14.00">e</text>
</g>
<!-- 23 -->
<g id="node29" class="node">
<title>23</title>
<ellipse fill="none" stroke="black" cx="778.22" cy="-60.75" rx="23" ry="23"/>
<text text-anchor="middle" x="778.22" y="-57.05" font-family="Times,serif" font-size="14.00">23</text>
</g>
<!-- 22&#45;&gt;23 -->
<g id="edge26" class="edge">
<title>22&#45;&gt;23</title>
<path fill="none" stroke="black" d="M695.99,-72.59C708.17,-75.15 723.72,-77.1 737.47,-74.75 740.72,-74.19 744.05,-73.4 747.34,-72.47"/>
<polygon fill="black" stroke="black" points="748.5,-75.77 756.94,-69.37 746.35,-69.11 748.5,-75.77"/>
<text text-anchor="middle" x="725.97" y="-80.55" font-family="Times,serif" font-size="14.00">0&#45;9</text>
</g>
<!-- 23&#45;&gt;22 -->
<g id="edge27" class="edge">
<title>23&#45;&gt;22</title>
<path fill="none" stroke="black" d="M755.67,-56.76C743.53,-55.08 728.12,-53.89 714.47,-55.75 711.55,-56.15 708.53,-56.7 705.53,-57.35"/>
<polygon fill="black" stroke="black" points="704.4,-54.03 695.54,-59.85 706.09,-60.82 704.4,-54.03"/>
<text text-anchor="middle" x="725.97" y="-59.55" font-family="Times,serif" font-size="14.00">e</text>
</g>
<!-- 27 -->
<g id="node30" class="node">
<title>27</title>
<ellipse fill="none" stroke="black" cx="932.21" cy="-60.75" rx="23" ry="23"/>
<text text-anchor="middle" x="932.21" y="-57.05" font-family="Times,serif" font-size="14.00">27</text>
</g>
<!-- 23&#45;&gt;27 -->
<g id="edge28" class="edge">
<title>23&#45;&gt;27</title>
<path fill="none" stroke="black" d="M801,-60.75C826.58,-60.75 869.28,-60.75 898.77,-60.75"/>
<polygon fill="black" stroke="black" points="898.98,-64.25 908.98,-60.75 898.98,-57.25 898.98,-64.25"/>
<text text-anchor="middle" x="823.47" y="-64.55" font-family="Times,serif" font-size="14.00">e</text>
</g>
<!-- 27&#45;&gt;29 -->
<g id="edge31" class="edge">
<title>27&#45;&gt;29</title>
<path fill="none" stroke="black" d="M955.29,-60.75C976.88,-60.75 1010.68,-60.75 1039.96,-60.75 1039.96,-60.75 1039.96,-60.75 1463.19,-60.75 1482.45,-60.75 1503.71,-64.47 1520.55,-68.32"/>
<polygon fill="black" stroke="black" points="1519.88,-71.75 1530.42,-70.7 1521.52,-64.95 1519.88,-71.75"/>
<text text-anchor="middle" x="1228.95" y="-64.55" font-family="Times,serif" font-size="14.00">e</text>
</g>
<!-- 24 -->
<g id="node31" class="node">
<title>24</title>
<ellipse fill="none" stroke="black" cx="22.75" cy="-298.75" rx="23" ry="23"/>
<text text-anchor="middle" x="22.75" y="-295.05" font-family="Times,serif" font-size="14.00">24</text>
</g>
<!-- 25 -->
<g id="node32" class="node">
<title>25</title>
<ellipse fill="none" stroke="black" cx="126.24" cy="-298.75" rx="23" ry="23"/>
<text text-anchor="middle" x="126.24" y="-295.05" font-family="Times,serif" font-size="14.00">25</text>
</g>
<!-- 24&#45;&gt;25 -->
<g id="edge29" class="edge">
<title>24&#45;&gt;25</title>
<path fill="none" stroke="black" d="M45.52,-298.75C59.34,-298.75 77.47,-298.75 92.95,-298.75"/>
<polygon fill="black" stroke="black" points="93.16,-302.25 103.16,-298.75 93.16,-295.25 93.16,-302.25"/>
<text text-anchor="middle" x="74.5" y="-302.55" font-family="Times,serif" font-size="14.00">9</text>
</g>
<!-- 44&#45;&gt;45 -->
<g id="edge50" class="edge">
<title>44&#45;&gt;45</title>
<path fill="none" stroke="black" d="M1665.44,-82.8C1683.25,-87.33 1709.41,-92.75 1732.68,-92.75 1732.68,-92.75 1732.68,-92.75 2591.14,-92.75 2611.16,-92.75 2632.81,-87.22 2650.12,-81.36"/>
<polygon fill="black" stroke="black" points="2651.53,-84.58 2659.77,-77.92 2649.17,-77.99 2651.53,-84.58"/>
<text text-anchor="middle" x="2168.91" y="-96.55" font-family="Times,serif" font-size="14.00">e</text>
</g>
<!-- 30 -->
<g id="node34" class="node">
<title>30</title>
<ellipse fill="none" stroke="black" cx="1733.68" cy="-41.75" rx="23" ry="23"/>
<text text-anchor="middle" x="1733.68" y="-38.05" font-family="Times,serif" font-size="14.00">30</text>
</g>
<!-- 44&#45;&gt;30 -->
<g id="edge49" class="edge">
<title>44&#45;&gt;30</title>
<path fill="none" stroke="black" d="M1664.7,-68.63C1675.99,-64.17 1690.19,-58.55 1702.69,-53.61"/>
<polygon fill="black" stroke="black" points="1704.25,-56.75 1712.26,-49.82 1701.68,-50.24 1704.25,-56.75"/>
<text text-anchor="middle" x="1688.43" y="-64.55" font-family="Times,serif" font-size="14.00">e</text>
</g>
<!-- 31 -->
<g id="node35" class="node">
<title>31</title>
<ellipse fill="none" stroke="black" cx="1839.17" cy="-41.75" rx="23" ry="23"/>
<text text-anchor="middle" x="1839.17" y="-38.05" font-family="Times,serif" font-size="14.00">31</text>
</g>
<!-- 30&#45;&gt;31 -->
<g id="edge35" class="edge">
<title>30&#45;&gt;31</title>
<path fill="none" stroke="black" d="M1756.62,-41.75C1771.03,-41.75 1790.11,-41.75 1806.2,-41.75"/>
<polygon fill="black" stroke="black" points="1806.25,-45.25 1816.25,-41.75 1806.25,-38.25 1806.25,-45.25"/>
<text text-anchor="middle" x="1786.42" y="-45.55" font-family="Times,serif" font-size="14.00">E e</text>
</g>
<!-- 36 -->
<g id="node36" class="node">
<title>36</title>
<ellipse fill="none" stroke="black" cx="1929.67" cy="-41.75" rx="23" ry="23"/>
<text text-anchor="middle" x="1929.67" y="-38.05" font-family="Times,serif" font-size="14.00">36</text>
</g>
<!-- 31&#45;&gt;36 -->
<g id="edge36" class="edge">
<title>31&#45;&gt;36</title>
<path fill="none" stroke="black" d="M1862.05,-41.75C1872.47,-41.75 1885.14,-41.75 1896.62,-41.75"/>
<polygon fill="black" stroke="black" points="1896.74,-45.25 1906.74,-41.75 1896.74,-38.25 1896.74,-45.25"/>
<text text-anchor="middle" x="1884.42" y="-45.55" font-family="Times,serif" font-size="14.00">e</text>
</g>
<!-- 34 -->
<g id="node39" class="node">
<title>34</title>
<ellipse fill="none" stroke="black" cx="2020.16" cy="-41.75" rx="23" ry="23"/>
<text text-anchor="middle" x="2020.16" y="-38.05" font-family="Times,serif" font-size="14.00">34</text>
</g>
<!-- 36&#45;&gt;34 -->
<g id="edge40" class="edge">
<title>36&#45;&gt;34</title>
<path fill="none" stroke="black" d="M1952.54,-41.75C1962.97,-41.75 1975.64,-41.75 1987.12,-41.75"/>
<polygon fill="black" stroke="black" points="1987.23,-45.25 1997.23,-41.75 1987.23,-38.25 1987.23,-45.25"/>
<text text-anchor="middle" x="1974.92" y="-45.55" font-family="Times,serif" font-size="14.00">e</text>
</g>
<!-- 37 -->
<g id="node41" class="node">
<title>37</title>
<ellipse fill="none" stroke="black" cx="2214.16" cy="-22.75" rx="23" ry="23"/>
<text text-anchor="middle" x="2214.16" y="-19.05" font-family="Times,serif" font-size="14.00">37</text>
</g>
<!-- 36&#45;&gt;37 -->
<g id="edge41" class="edge">
<title>36&#45;&gt;37</title>
<path fill="none" stroke="black" d="M1949.4,-29.96C1962.34,-22.54 1980.25,-13.65 1997.42,-9.75 2061.67,4.86 2139.3,-6.69 2181.71,-15.39"/>
<polygon fill="black" stroke="black" points="2181.19,-18.86 2191.7,-17.52 2182.65,-12.01 2181.19,-18.86"/>
<text text-anchor="middle" x="2071.91" y="-7.55" font-family="Times,serif" font-size="14.00">e</text>
</g>
<!-- 32 -->
<g id="node37" class="node">
<title>32</title>
<ellipse fill="none" stroke="black" cx="22.75" cy="-361.75" rx="23" ry="23"/>
<text text-anchor="middle" x="22.75" y="-358.05" font-family="Times,serif" font-size="14.00">32</text>
</g>
<!-- 33 -->
<g id="node38" class="node">
<title>33</title>
<ellipse fill="none" stroke="black" cx="126.24" cy="-361.75" rx="23" ry="23"/>
<text text-anchor="middle" x="126.24" y="-358.05" font-family="Times,serif" font-size="14.00">33</text>
</g>
<!-- 32&#45;&gt;33 -->
<g id="edge37" class="edge">
<title>32&#45;&gt;33</title>
<path fill="none" stroke="black" d="M45.52,-361.75C59.34,-361.75 77.47,-361.75 92.95,-361.75"/>
<polygon fill="black" stroke="black" points="93.16,-365.25 103.16,-361.75 93.16,-358.25 93.16,-365.25"/>
<text text-anchor="middle" x="74.5" y="-365.55" font-family="Times,serif" font-size="14.00">E</text>
</g>
<!-- 35 -->
<g id="node40" class="node">
<title>35</title>
<ellipse fill="none" stroke="black" cx="2123.66" cy="-41.75" rx="23" ry="23"/>
<text text-anchor="middle" x="2123.66" y="-38.05" font-family="Times,serif" font-size="14.00">35</text>
</g>
<!-- 34&#45;&gt;35 -->
<g id="edge38" class="edge">
<title>34&#45;&gt;35</title>
<path fill="none" stroke="black" d="M2042.94,-41.75C2056.76,-41.75 2074.89,-41.75 2090.36,-41.75"/>
<polygon fill="black" stroke="black" points="2090.57,-45.25 2100.57,-41.75 2090.57,-38.25 2090.57,-45.25"/>
<text text-anchor="middle" x="2071.91" y="-45.55" font-family="Times,serif" font-size="14.00">+ &#45;</text>
</g>
<!-- 35&#45;&gt;37 -->
<g id="edge39" class="edge">
<title>35&#45;&gt;37</title>
<path fill="none" stroke="black" d="M2146.08,-37.15C2156.76,-34.86 2169.89,-32.04 2181.69,-29.5"/>
<polygon fill="black" stroke="black" points="2182.58,-32.89 2191.62,-27.37 2181.11,-26.05 2182.58,-32.89"/>
<text text-anchor="middle" x="2168.91" y="-37.55" font-family="Times,serif" font-size="14.00">e</text>
</g>
<!-- 42 -->
<g id="node42" class="node">
<title>42</title>
<ellipse fill="none" stroke="black" cx="2304.65" cy="-22.75" rx="23" ry="23"/>
<text text-anchor="middle" x="2304.65" y="-19.05" font-family="Times,serif" font-size="14.00">42</text>
</g>
<!-- 37&#45;&gt;42 -->
<g id="edge42" class="edge">
<title>37&#45;&gt;42</title>
<path fill="none" stroke="black" d="M2237.03,-22.75C2247.45,-22.75 2260.13,-22.75 2271.61,-22.75"/>
<polygon fill="black" stroke="black" points="2271.72,-26.25 2281.72,-22.75 2271.72,-19.25 2271.72,-26.25"/>
<text text-anchor="middle" x="2259.4" y="-26.55" font-family="Times,serif" font-size="14.00">e</text>
</g>
<!-- 38 -->
<g id="node43" class="node">
<title>38</title>
<ellipse fill="none" stroke="black" cx="2395.15" cy="-22.75" rx="23" ry="23"/>
<text text-anchor="middle" x="2395.15" y="-19.05" font-family="Times,serif" font-size="14.00">38</text>
</g>
<!-- 42&#45;&gt;38 -->
<g id="edge47" class="edge">
<title>42&#45;&gt;38</title>
<path fill="none" stroke="black" d="M2327.53,-22.75C2337.95,-22.75 2350.62,-22.75 2362.1,-22.75"/>
<polygon fill="black" stroke="black" points="2362.22,-26.25 2372.22,-22.75 2362.22,-19.25 2362.22,-26.25"/>
<text text-anchor="middle" x="2349.9" y="-26.55" font-family="Times,serif" font-size="14.00">e</text>
</g>
<!-- 39 -->
<g id="node44" class="node">
<title>39</title>
<ellipse fill="none" stroke="black" cx="2499.64" cy="-41.75" rx="23" ry="23"/>
<text text-anchor="middle" x="2499.64" y="-38.05" font-family="Times,serif" font-size="14.00">39</text>
</g>
<!-- 38&#45;&gt;39 -->
<g id="edge43" class="edge">
<title>38&#45;&gt;39</title>
<path fill="none" stroke="black" d="M2417.58,-27.16C2423.51,-28.36 2429.95,-29.63 2435.9,-30.75 2446.06,-32.66 2457.17,-34.64 2467.18,-36.39"/>
<polygon fill="black" stroke="black" points="2466.68,-39.86 2477.13,-38.11 2467.87,-32.96 2466.68,-39.86"/>
<text text-anchor="middle" x="2447.4" y="-39.55" font-family="Times,serif" font-size="14.00">0&#45;9</text>
</g>
<!-- 39&#45;&gt;38 -->
<g id="edge44" class="edge">
<title>39&#45;&gt;38</title>
<path fill="none" stroke="black" d="M2482.65,-25.92C2475.89,-20.3 2467.58,-14.66 2458.9,-11.75 2448.4,-8.23 2436.53,-9.15 2425.96,-11.56"/>
<polygon fill="black" stroke="black" points="2425.01,-8.19 2416.31,-14.24 2426.88,-14.94 2425.01,-8.19"/>
<text text-anchor="middle" x="2447.4" y="-15.55" font-family="Times,serif" font-size="14.00">e</text>
</g>
<!-- 43 -->
<g id="node45" class="node">
<title>43</title>
<ellipse fill="none" stroke="black" cx="2590.14" cy="-41.75" rx="23" ry="23"/>
<text text-anchor="middle" x="2590.14" y="-38.05" font-family="Times,serif" font-size="14.00">43</text>
</g>
<!-- 39&#45;&gt;43 -->
<g id="edge45" class="edge">
<title>39&#45;&gt;43</title>
<path fill="none" stroke="black" d="M2522.52,-41.75C2532.94,-41.75 2545.61,-41.75 2557.1,-41.75"/>
<polygon fill="black" stroke="black" points="2557.21,-45.25 2567.21,-41.75 2557.21,-38.25 2557.21,-45.25"/>
<text text-anchor="middle" x="2544.89" y="-45.55" font-family="Times,serif" font-size="14.00">e</text>
</g>
<!-- 43&#45;&gt;45 -->
<g id="edge48" class="edge">
<title>43&#45;&gt;45</title>
<path fill="none" stroke="black" d="M2612.13,-47.65C2623.06,-50.72 2636.72,-54.56 2649.15,-58.06"/>
<polygon fill="black" stroke="black" points="2648.22,-61.43 2658.79,-60.76 2650.11,-54.69 2648.22,-61.43"/>
<text text-anchor="middle" x="2635.39" y="-58.55" font-family="Times,serif" font-size="14.00">e</text>
</g>
<!-- 40 -->
<g id="node46" class="node">
<title>40</title>
<ellipse fill="none" stroke="black" cx="22.75" cy="-424.75" rx="23" ry="23"/>
<text text-anchor="middle" x="22.75" y="-421.05" font-family="Times,serif" font-size="14.00">40</text>
</g>
<!-- 41 -->
<g id="node47" class="node">
<title>41</title>
<ellipse fill="none" stroke="black" cx="126.24" cy="-424.75" rx="23" ry="23"/>
<text text-anchor="middle" x="126.24" y="-421.05" font-family="Times,serif" font-size="14.00">41</text>
</g>
<!-- 40&#45;&gt;41 -->
<g id="edge46" class="edge">
<title>40&#45;&gt;41</title>
<path fill="none" stroke="black" d="M45.52,-424.75C59.34,-424.75 77.47,-424.75 92.95,-424.75"/>
<polygon fill="black" stroke="black" points="93.16,-428.25 103.16,-424.75 93.16,-421.25 93.16,-428.25"/>
<text text-anchor="middle" x="74.5" y="-428.55" font-family="Times,serif" font-size="14.00">9</text>
</g>
</g>
</svg>
