<?xml version="1.0" encoding="UTF-8" standalone="no"?>
<!DOCTYPE svg PUBLIC "-//W3C//DTD SVG 1.1//EN"
 "http://www.w3.org/Graphics/SVG/1.1/DTD/svg11.dtd">
<!-- Generated by graphviz version 2.43.0 (0)
 -->
<!-- Title: %147 Pages: 1 -->
<svg width="678pt" height="147pt"
 viewBox="0.00 0.00 677.60 147.00" xmlns="http://www.w3.org/2000/svg" xmlns:xlink="http://www.w3.org/1999/xlink">
<g id="page0,1_graph0" class="graph" transform="scale(1 1) rotate(0) translate(4 143)">
<title>%147</title>
<polygon fill="white" stroke="transparent" points="-4,4 -4,-143 673.6,-143 673.6,4 -4,4"/>
<!-- _ -->
<g id="node1" class="node">
<title>_</title>
<ellipse fill="black" stroke="black" cx="1.8" cy="-49" rx="1.8" ry="1.8"/>
</g>
<!-- 8 -->
<g id="node5" class="node">
<title>8</title>
<ellipse fill="none" stroke="black" cx="58.6" cy="-49" rx="18" ry="18"/>
<text text-anchor="middle" x="58.6" y="-45.3" font-family="Times,serif" font-size="14.00">8</text>
</g>
<!-- _&#45;&gt;8 -->
<g id="edge1" class="edge">
<title>_&#45;&gt;8</title>
<path fill="none" stroke="black" d="M3.75,-49C7.11,-49 18.87,-49 30.55,-49"/>
<polygon fill="black" stroke="black" points="30.58,-52.5 40.58,-49 30.58,-45.5 30.58,-52.5"/>
</g>
<!-- 1 -->
<g id="node2" class="node">
<title>1</title>
<ellipse fill="none" stroke="black" cx="647.6" cy="-68" rx="18" ry="18"/>
<ellipse fill="none" stroke="black" cx="647.6" cy="-68" rx="22" ry="22"/>
<text text-anchor="middle" x="647.6" y="-64.3" font-family="Times,serif" font-size="14.00">1</text>
</g>
<!-- 1&#45;&gt;1 -->
<g id="edge2" class="edge">
<title>1&#45;&gt;1</title>
<path fill="none" stroke="black" d="M638.55,-88.17C637.16,-98.6 640.18,-108 647.6,-108 652.47,-108 655.44,-103.95 656.52,-98.22"/>
<polygon fill="black" stroke="black" points="660.02,-98.21 656.65,-88.17 653.02,-98.12 660.02,-98.21"/>
<text text-anchor="middle" x="647.6" y="-111.8" font-family="Times,serif" font-size="14.00">0&#45;9</text>
</g>
<!-- 2 -->
<g id="node3" class="node">
<title>2</title>
<ellipse fill="none" stroke="black" cx="354.6" cy="-22" rx="18" ry="18"/>
<ellipse fill="none" stroke="black" cx="354.6" cy="-22" rx="22" ry="22"/>
<text text-anchor="middle" x="354.6" y="-18.3" font-family="Times,serif" font-size="14.00">2</text>
</g>
<!-- 2&#45;&gt;2 -->
<g id="edge3" class="edge">
<title>2&#45;&gt;2</title>
<path fill="none" stroke="black" d="M345.55,-42.17C344.16,-52.6 347.18,-62 354.6,-62 359.47,-62 362.44,-57.95 363.52,-52.22"/>
<polygon fill="black" stroke="black" points="367.02,-52.21 363.65,-42.17 360.02,-52.12 367.02,-52.21"/>
<text text-anchor="middle" x="354.6" y="-65.8" font-family="Times,serif" font-size="14.00">0&#45;9</text>
</g>
<!-- 7 -->
<g id="node6" class="node">
<title>7</title>
<ellipse fill="none" stroke="black" cx="454.6" cy="-68" rx="18" ry="18"/>
<text text-anchor="middle" x="454.6" y="-64.3" font-family="Times,serif" font-size="14.00">7</text>
</g>
<!-- 2&#45;&gt;7 -->
<g id="edge4" class="edge">
<title>2&#45;&gt;7</title>
<path fill="none" stroke="black" d="M374.96,-31.09C390.35,-38.31 411.98,-48.47 428.67,-56.3"/>
<polygon fill="black" stroke="black" points="427.29,-59.52 437.83,-60.6 430.27,-53.18 427.29,-59.52"/>
<text text-anchor="middle" x="406.6" y="-53.8" font-family="Times,serif" font-size="14.00">E e</text>
</g>
<!-- 3 -->
<g id="node4" class="node">
<title>3</title>
<ellipse fill="none" stroke="black" cx="251.6" cy="-84" rx="18" ry="18"/>
<ellipse fill="none" stroke="black" cx="251.6" cy="-84" rx="22" ry="22"/>
<text text-anchor="middle" x="251.6" y="-80.3" font-family="Times,serif" font-size="14.00">3</text>
</g>
<!-- 3&#45;&gt;2 -->
<g id="edge5" class="edge">
<title>3&#45;&gt;2</title>
<path fill="none" stroke="black" d="M270.66,-72.92C286.22,-63.36 308.9,-49.44 326.61,-38.57"/>
<polygon fill="black" stroke="black" points="328.67,-41.41 335.36,-33.2 325.01,-35.45 328.67,-41.41"/>
<text text-anchor="middle" x="303.1" y="-61.8" font-family="Times,serif" font-size="14.00">.</text>
</g>
<!-- 3&#45;&gt;3 -->
<g id="edge6" class="edge">
<title>3&#45;&gt;3</title>
<path fill="none" stroke="black" d="M242.55,-104.17C241.16,-114.6 244.18,-124 251.6,-124 256.47,-124 259.44,-119.95 260.52,-114.22"/>
<polygon fill="black" stroke="black" points="264.02,-114.21 260.65,-104.17 257.02,-114.12 264.02,-114.21"/>
<text text-anchor="middle" x="251.6" y="-127.8" font-family="Times,serif" font-size="14.00">0&#45;9</text>
</g>
<!-- 3&#45;&gt;7 -->
<g id="edge7" class="edge">
<title>3&#45;&gt;7</title>
<path fill="none" stroke="black" d="M273.75,-86.02C298.49,-87.99 340.67,-90.14 376.6,-86 393.72,-84.03 412.56,-79.66 427.33,-75.72"/>
<polygon fill="black" stroke="black" points="428.57,-79.01 437.27,-72.97 426.7,-72.26 428.57,-79.01"/>
<text text-anchor="middle" x="354.6" y="-91.8" font-family="Times,serif" font-size="14.00">E e</text>
</g>
<!-- 8&#45;&gt;3 -->
<g id="edge14" class="edge">
<title>8&#45;&gt;3</title>
<path fill="none" stroke="black" d="M74.14,-58.12C80.27,-61.63 87.59,-65.42 94.6,-68 144.09,-86.26 158.91,-90.69 211.6,-88 214.16,-87.87 216.81,-87.69 219.46,-87.48"/>
<polygon fill="black" stroke="black" points="219.94,-90.95 229.58,-86.55 219.3,-83.98 219.94,-90.95"/>
<text text-anchor="middle" x="152.6" y="-91.8" font-family="Times,serif" font-size="14.00">0&#45;9</text>
</g>
<!-- 5 -->
<g id="node8" class="node">
<title>5</title>
<ellipse fill="none" stroke="black" cx="251.6" cy="-22" rx="18" ry="18"/>
<text text-anchor="middle" x="251.6" y="-18.3" font-family="Times,serif" font-size="14.00">5</text>
</g>
<!-- 8&#45;&gt;5 -->
<g id="edge15" class="edge">
<title>8&#45;&gt;5</title>
<path fill="none" stroke="black" d="M73.31,-38.45C87.68,-28.11 111.35,-13.07 134.6,-7 164.9,0.91 200.78,-6.15 224.52,-13.02"/>
<polygon fill="black" stroke="black" points="223.63,-16.4 234.21,-16 225.69,-9.71 223.63,-16.4"/>
<text text-anchor="middle" x="152.6" y="-10.8" font-family="Times,serif" font-size="14.00">.</text>
</g>
<!-- 6 -->
<g id="node9" class="node">
<title>6</title>
<ellipse fill="none" stroke="black" cx="152.6" cy="-49" rx="18" ry="18"/>
<text text-anchor="middle" x="152.6" y="-45.3" font-family="Times,serif" font-size="14.00">6</text>
</g>
<!-- 8&#45;&gt;6 -->
<g id="edge16" class="edge">
<title>8&#45;&gt;6</title>
<path fill="none" stroke="black" d="M76.9,-49C90.14,-49 108.65,-49 123.94,-49"/>
<polygon fill="black" stroke="black" points="124.37,-52.5 134.37,-49 124.37,-45.5 124.37,-52.5"/>
<text text-anchor="middle" x="105.6" y="-52.8" font-family="Times,serif" font-size="14.00">+ &#45;</text>
</g>
<!-- 7&#45;&gt;1 -->
<g id="edge12" class="edge">
<title>7&#45;&gt;1</title>
<path fill="none" stroke="black" d="M472.2,-72.6C477.98,-73.98 484.53,-75.32 490.6,-76 510.4,-78.23 520.54,-83.21 607.6,-75 610.18,-74.76 612.84,-74.43 615.5,-74.06"/>
<polygon fill="black" stroke="black" points="616.32,-77.47 625.64,-72.43 615.21,-70.56 616.32,-77.47"/>
<text text-anchor="middle" x="548.6" y="-82.8" font-family="Times,serif" font-size="14.00">0&#45;9</text>
</g>
<!-- 4 -->
<g id="node7" class="node">
<title>4</title>
<ellipse fill="none" stroke="black" cx="548.6" cy="-41" rx="18" ry="18"/>
<text text-anchor="middle" x="548.6" y="-37.3" font-family="Times,serif" font-size="14.00">4</text>
</g>
<!-- 7&#45;&gt;4 -->
<g id="edge13" class="edge">
<title>7&#45;&gt;4</title>
<path fill="none" stroke="black" d="M472.05,-63.17C485.7,-59.17 505.37,-53.39 521.22,-48.74"/>
<polygon fill="black" stroke="black" points="522.37,-52.05 530.98,-45.88 520.4,-45.33 522.37,-52.05"/>
<text text-anchor="middle" x="501.6" y="-60.8" font-family="Times,serif" font-size="14.00">+ &#45;</text>
</g>
<!-- 4&#45;&gt;1 -->
<g id="edge8" class="edge">
<title>4&#45;&gt;1</title>
<path fill="none" stroke="black" d="M566.05,-45.58C579.75,-49.39 599.62,-54.92 616.2,-59.54"/>
<polygon fill="black" stroke="black" points="615.44,-62.96 626.01,-62.27 617.31,-56.21 615.44,-62.96"/>
<text text-anchor="middle" x="596.1" y="-59.8" font-family="Times,serif" font-size="14.00">0&#45;9</text>
</g>
<!-- 5&#45;&gt;2 -->
<g id="edge9" class="edge">
<title>5&#45;&gt;2</title>
<path fill="none" stroke="black" d="M269.73,-22C284.09,-22 304.95,-22 322.28,-22"/>
<polygon fill="black" stroke="black" points="322.52,-25.5 332.52,-22 322.52,-18.5 322.52,-25.5"/>
<text text-anchor="middle" x="303.1" y="-25.8" font-family="Times,serif" font-size="14.00">0&#45;9</text>
</g>
<!-- 6&#45;&gt;3 -->
<g id="edge10" class="edge">
<title>6&#45;&gt;3</title>
<path fill="none" stroke="black" d="M170.05,-54.94C183.93,-59.94 204.14,-67.24 220.85,-73.26"/>
<polygon fill="black" stroke="black" points="220.11,-76.72 230.71,-76.82 222.49,-70.14 220.11,-76.72"/>
<text text-anchor="middle" x="200.1" y="-72.8" font-family="Times,serif" font-size="14.00">0&#45;9</text>
</g>
<!-- 6&#45;&gt;5 -->
<g id="edge11" class="edge">
<title>6&#45;&gt;5</title>
<path fill="none" stroke="black" d="M169.42,-41.99C175.36,-39.55 182.21,-36.93 188.6,-35 199.93,-31.58 212.69,-28.73 223.67,-26.59"/>
<polygon fill="black" stroke="black" points="224.37,-30.02 233.56,-24.75 223.09,-23.14 224.37,-30.02"/>
<text text-anchor="middle" x="200.1" y="-38.8" font-family="Times,serif" font-size="14.00">.</text>
</g>
</g>
</svg>
